<svg xmlns="http://www.w3.org/2000/svg" width="16" height="16" viewBox="0 0 16 16" fill="none">
<path d="M2.31923 8.92654C2.00252 8.47409 1.37899 8.36405 0.926538 8.68077C0.474088 8.99748 0.364054 9.62101 0.680768 10.0735L2.31923 8.92654ZM5 14.5L4.18077 15.0735C4.36335 15.3343 4.65922 15.4926 4.97752 15.4997C5.29582 15.5069 5.5985 15.3621 5.79262 15.1097L5 14.5ZM15.7926 2.10971C16.1294 1.67196 16.0475 1.04411 15.6097 0.707376C15.172 0.370642 14.5441 0.452535 14.2074 0.890289L15.7926 2.10971ZM0.680768 10.0735L4.18077 15.0735L5.81923 13.9265L2.31923 8.92654L0.680768 10.0735ZM5.79262 15.1097L15.7926 2.10971L14.2074 0.890289L4.20738 13.8903L5.79262 15.1097Z" fill="white"/>
</svg>
